<?xml version="1.0" encoding="UTF-8"?>
<!DOCTYPE svg PUBLIC "-//W3C//DTD SVG 1.1//EN" "http://www.w3.org/Graphics/SVG/1.1/DTD/svg11.dtd">
<svg xmlns="http://www.w3.org/2000/svg" version="1.1" width="400px" height="400px" style="shape-rendering:geometricPrecision; text-rendering:geometricPrecision; image-rendering:optimizeQuality; fill-rule:evenodd; clip-rule:evenodd" xmlns:xlink="http://www.w3.org/1999/xlink">
<g><path style="opacity:0.999" fill="#181c1a" d="M -0.5,-0.5 C 132.833,-0.5 266.167,-0.5 399.5,-0.5C 399.5,132.833 399.5,266.167 399.5,399.5C 266.167,399.5 132.833,399.5 -0.5,399.5C -0.5,266.167 -0.5,132.833 -0.5,-0.5 Z"/></g>
<g><path style="opacity:1" fill="#6e8869" d="M 396.5,2.5 C 265.167,2.5 133.833,2.5 2.5,2.5C 2.5,133.833 2.5,265.167 2.5,396.5C 1.50042,265.001 1.16709,133.334 1.5,1.5C 133.334,1.16709 265.001,1.50042 396.5,2.5 Z"/></g>
<g><path style="opacity:1" fill="#aad7a1" d="M 396.5,2.5 C 396.5,133.833 396.5,265.167 396.5,396.5C 265.167,396.5 133.833,396.5 2.5,396.5C 2.5,265.167 2.5,133.833 2.5,2.5C 133.833,2.5 265.167,2.5 396.5,2.5 Z"/></g>
</svg>
