<?xml version="1.0" encoding="UTF-8"?>
<!DOCTYPE svg PUBLIC "-//W3C//DTD SVG 1.1//EN" "http://www.w3.org/Graphics/SVG/1.1/DTD/svg11.dtd">
<svg xmlns="http://www.w3.org/2000/svg" version="1.1" width="400px" height="400px" style="shape-rendering:geometricPrecision; text-rendering:geometricPrecision; image-rendering:optimizeQuality; fill-rule:evenodd; clip-rule:evenodd" xmlns:xlink="http://www.w3.org/1999/xlink">
<g><path style="opacity:0.85" fill="#171a1c" d="M 177.5,-0.5 C 192.167,-0.5 206.833,-0.5 221.5,-0.5C 294.082,10.3711 347.249,48.3711 381,113.5C 390.462,134.366 396.629,156.033 399.5,178.5C 399.5,192.5 399.5,206.5 399.5,220.5C 386.246,306.263 338.579,363.429 256.5,392C 244.5,395.172 232.5,397.672 220.5,399.5C 206.5,399.5 192.5,399.5 178.5,399.5C 99.1366,387.98 43.6366,345.313 12,271.5C 5.91425,255.157 1.74758,238.49 -0.5,221.5C -0.5,206.833 -0.5,192.167 -0.5,177.5C 10.5119,102.986 49.8452,49.1528 117.5,16C 136.869,7.66127 156.869,2.16127 177.5,-0.5 Z"/></g>
<g><path style="opacity:1" fill="#91cbe2" d="M 185.5,1.5 C 255.734,-0.793017 312.901,25.207 357,79.5C 397.686,135.617 407.686,196.95 387,263.5C 355.826,342.518 297.993,387.018 213.5,397C 135.278,399.308 74.4448,368.141 31,303.5C -5.67003,239.406 -8.00336,174.073 24,107.5C 59.947,44.9415 113.78,9.60815 185.5,1.5 Z"/></g>
</svg>
