<?xml version="1.0" encoding="UTF-8"?>
<!DOCTYPE svg PUBLIC "-//W3C//DTD SVG 1.1//EN" "http://www.w3.org/Graphics/SVG/1.1/DTD/svg11.dtd">
<svg xmlns="http://www.w3.org/2000/svg" version="1.1" width="400px" height="400px" style="shape-rendering:geometricPrecision; text-rendering:geometricPrecision; image-rendering:optimizeQuality; fill-rule:evenodd; clip-rule:evenodd" xmlns:xlink="http://www.w3.org/1999/xlink">
<g><path style="opacity:0.775" fill="#191819" d="M 197.5,-0.5 C 198.833,-0.5 200.167,-0.5 201.5,-0.5C 267.167,65.8333 333.167,131.833 399.5,197.5C 399.5,198.833 399.5,200.167 399.5,201.5C 333.167,267.167 267.167,333.167 201.5,399.5C 200.167,399.5 198.833,399.5 197.5,399.5C 131.833,333.167 65.8333,267.167 -0.5,201.5C -0.5,200.167 -0.5,198.833 -0.5,197.5C 65.8333,131.833 131.833,65.8333 197.5,-0.5 Z"/></g>
<g><path style="opacity:1" fill="#e8807c" d="M 198.5,2.5 C 265.097,67.4299 331.097,133.097 396.5,199.5C 331.167,265.5 265.5,331.167 199.5,396.5C 133.5,331.167 67.8333,265.5 2.5,199.5C 67.8544,133.812 133.188,68.1457 198.5,2.5 Z"/></g>
</svg>
