<?xml version="1.0" encoding="UTF-8"?>
<!DOCTYPE svg PUBLIC "-//W3C//DTD SVG 1.1//EN" "http://www.w3.org/Graphics/SVG/1.1/DTD/svg11.dtd">
<svg xmlns="http://www.w3.org/2000/svg" version="1.1" width="400px" height="400px" style="shape-rendering:geometricPrecision; text-rendering:geometricPrecision; image-rendering:optimizeQuality; fill-rule:evenodd; clip-rule:evenodd" xmlns:xlink="http://www.w3.org/1999/xlink">
<g><path style="opacity:0.84" fill="#1a1b19" d="M 184.5,-0.5 C 194.5,-0.5 204.5,-0.5 214.5,-0.5C 258.66,9.8255 286.16,37.1588 297,81.5C 298.107,87.7869 298.607,94.1202 298.5,100.5C 337.802,101.729 367.636,119.062 388,152.5C 393.576,163.728 397.41,175.394 399.5,187.5C 399.5,195.5 399.5,203.5 399.5,211.5C 390.398,257.772 362.731,286.272 316.5,297C 310.545,298.072 304.545,298.572 298.5,298.5C 297.245,337.864 279.912,367.697 246.5,388C 235.272,393.576 223.606,397.41 211.5,399.5C 203.5,399.5 195.5,399.5 187.5,399.5C 147.922,392.437 120.755,370.104 106,332.5C 102.111,321.497 100.277,310.164 100.5,298.5C 55.7537,296.224 23.9203,274.891 5,234.5C 2.82,227.113 0.986667,219.78 -0.5,212.5C -0.5,203.5 -0.5,194.5 -0.5,185.5C 6.59304,147.891 27.9264,121.724 63.5,107C 75.3868,102.278 87.7201,100.111 100.5,100.5C 101.836,59.6428 120.17,29.1428 155.5,9C 164.888,4.74189 174.554,1.57522 184.5,-0.5 Z"/></g>
<g><path style="opacity:1" fill="#f4f083" d="M 188.5,1.5 C 235.204,-0.576057 268.371,19.4239 288,61.5C 293.714,74.5724 296.548,88.2391 296.5,102.5C 340.629,104.292 372.129,124.958 391,164.5C 404.887,206.785 395.387,242.952 362.5,273C 343.077,287.865 321.077,295.698 296.5,296.5C 295.385,330.897 281.385,358.73 254.5,380C 209.764,406.973 168.264,402.806 130,367.5C 112.496,347.17 103.33,323.503 102.5,296.5C 58.377,294.711 26.877,274.044 8,234.5C -7.75937,184.103 6.4073,144.603 50.5,116C 66.6766,107.109 84.01,102.609 102.5,102.5C 104.274,57.4265 125.607,25.5932 166.5,7C 173.738,4.19031 181.072,2.35697 188.5,1.5 Z"/></g>
</svg>
